<?xml version="1.0" encoding="utf-8"?>
<!-- Generator: Adobe Illustrator 26.3.1, SVG Export Plug-In . SVG Version: 6.00 Build 0)  -->
<svg version="1.1" id="Layer_1" xmlns="http://www.w3.org/2000/svg" xmlns:xlink="http://www.w3.org/1999/xlink" x="0px" y="0px"
	 viewBox="0 0 2000 2000" style="enable-background:new 0 0 2000 2000;" xml:space="preserve">
<style type="text/css">
	.st0{fill:#2B5A67;}
	.st1{fill:url(#SVGID_1_);}
	.st2{fill:url(#SVGID_00000147201632790192707020000005582815434068550575_);}
	.st3{fill:url(#SVGID_00000145742588912265258310000008194315559977684657_);}
	.st4{fill:url(#SVGID_00000125597119329959206310000008204252976029934756_);}
	.st5{fill:url(#SVGID_00000083768661555156895930000005873664710462062013_);}
	.st6{fill:url(#SVGID_00000021088825286267685010000003907101260478795920_);}
	.st7{fill:url(#SVGID_00000062173939725477088070000000708675365426859694_);}
	.st8{fill:url(#SVGID_00000018202622343692647220000012778770357553839798_);}
	.st9{fill:url(#SVGID_00000139260641101348774700000002470457196145741704_);}
	.st10{fill:url(#SVGID_00000055706086378594603020000015114272534569255575_);}
	.st11{fill:url(#SVGID_00000101794539125135497730000002047338472116971422_);}
	.st12{fill:url(#SVGID_00000005237430644737311340000009400540668628619136_);}
	.st13{fill:url(#SVGID_00000134947795786151200210000010333251394733811586_);}
	.st14{fill:url(#SVGID_00000051371208795522126820000015588352320708480682_);}
	.st15{fill:url(#SVGID_00000090266682064782584340000002607606785508423843_);}
	.st16{fill:url(#SVGID_00000087411984298096739510000007745132261470002838_);}
	.st17{fill:url(#SVGID_00000119112133126210594000000016569841447895920258_);}
	.st18{fill:url(#SVGID_00000016794479437166559610000005006042494886558860_);}
	.st19{fill:url(#SVGID_00000064353674606518698980000015411446213331074231_);}
	.st20{fill:url(#SVGID_00000116942097003739560200000013097872536171939214_);}
	.st21{fill:url(#SVGID_00000158745846102100965440000008260276294706151326_);}
	.st22{fill:url(#SVGID_00000083072273680511776690000012994222589591677837_);}
	.st23{fill:url(#SVGID_00000056417447563779069400000007026108546846315166_);}
	.st24{fill:url(#SVGID_00000063635694907665257060000002701776140017811881_);}
	.st25{fill:url(#SVGID_00000089538589842989861560000002265241738911692935_);}
</style>
<g>
	<g>
		<g>
			<path class="st0" d="M225.33,1866.65c0-12.17-4.3-21.52-12.89-28.04c-8.59-6.52-24.07-13.39-46.41-20.63
				c-22.35-7.23-40.04-14.36-53.07-21.38c-35.53-19.19-53.29-45.05-53.29-77.56c0-16.9,4.76-31.98,14.29-45.23
				c9.52-13.25,23.21-23.6,41.04-31.05c17.83-7.45,37.85-11.17,60.05-11.17c22.35,0,42.25,4.05,59.73,12.14
				c17.47,8.09,31.05,19.52,40.72,34.27c6.01,9.17,10.15,19.12,12.43,29.84c2.23,10.53-5.83,20.44-16.6,20.44h-30.75
				c-7.91,0-14.65-5.49-16.52-13.17c-2-8.17-6.02-14.92-12.05-20.24c-9.02-7.95-21.7-11.92-38.03-11.92
				c-15.76,0-28.01,3.33-36.74,9.99c-8.74,6.66-13.11,15.44-13.11,26.32c0,10.17,5.12,18.69,15.36,25.57
				c10.24,6.88,25.32,13.32,45.23,19.34c36.67,11.03,63.39,24.71,80.14,41.04c16.76,16.33,25.14,36.67,25.14,61.02
				c0,27.07-10.24,48.31-30.73,63.71c-20.49,15.4-48.06,23.1-82.72,23.1c-24.07,0-45.98-4.4-65.75-13.21
				c-19.77-8.81-34.85-20.88-45.23-36.2c-6.76-9.98-11.32-20.98-13.68-33.03c-2.06-10.49,5.94-20.26,16.63-20.26H99.3
				c8.16,0,15.05,5.83,16.66,13.83c5.08,25.3,25.28,37.95,60.6,37.95c15.33,0,27.29-3.11,35.88-9.35
				C221.03,1886.52,225.33,1877.82,225.33,1866.65z"/>
			<path class="st0" d="M407.22,1948.73h-30.56c-9.36,0-16.95-7.59-16.95-16.95v-278.94c0-9.36,7.59-16.95,16.95-16.95h30.56
				c9.36,0,16.95,7.59,16.95,16.95v278.94C424.16,1941.14,416.58,1948.73,407.22,1948.73z"/>
			<path class="st0" d="M668.12,1866.65c0-12.17-4.3-21.52-12.89-28.04c-8.59-6.52-24.07-13.39-46.41-20.63
				c-22.35-7.23-40.04-14.36-53.07-21.38c-35.53-19.19-53.29-45.05-53.29-77.56c0-16.9,4.76-31.98,14.29-45.23
				c9.52-13.25,23.21-23.6,41.04-31.05c17.83-7.45,37.85-11.17,60.05-11.17c22.35,0,42.25,4.05,59.73,12.14
				c17.47,8.09,31.05,19.52,40.72,34.27c6.07,9.26,10.23,19.32,12.49,30.16c2.16,10.37-5.74,20.12-16.34,20.12h-31.28
				c-7.78,0-14.45-5.4-16.26-12.97c-1.98-8.26-6.02-15.08-12.1-20.44c-9.02-7.95-21.7-11.92-38.03-11.92
				c-15.76,0-28.01,3.33-36.74,9.99c-8.74,6.66-13.11,15.44-13.11,26.32c0,10.17,5.12,18.69,15.36,25.57
				c10.24,6.88,25.32,13.32,45.23,19.34c36.67,11.03,63.39,24.71,80.14,41.04c16.76,16.33,25.14,36.67,25.14,61.02
				c0,27.07-10.24,48.31-30.72,63.71c-20.49,15.4-48.06,23.1-82.72,23.1c-24.07,0-45.98-4.4-65.75-13.21
				c-19.77-8.81-34.85-20.88-45.23-36.2c-6.82-10.06-11.4-21.18-13.74-33.34c-1.99-10.33,5.85-19.94,16.37-19.94h31.31
				c8.03,0,14.84,5.74,16.4,13.62c5.01,25.44,25.23,38.16,60.64,38.16c15.33,0,27.29-3.11,35.88-9.35
				C663.82,1886.52,668.12,1877.82,668.12,1866.65z"/>
			<path class="st0" d="M921.63,1743.6l45.23-97.93c2.76-5.97,8.73-9.79,15.3-9.79h32.06c12.62,0,20.76,13.35,14.98,24.57
				l-88.18,171.19c-1.23,2.39-1.87,5.03-1.87,7.72v92.51c0,9.31-7.55,16.85-16.85,16.85h-31.83c-9.31,0-16.85-7.55-16.85-16.85
				v-92.51c0-2.68-0.64-5.33-1.87-7.72l-88.18-171.19c-5.78-11.22,2.37-24.57,14.98-24.57h32.24c6.59,0,12.57,3.84,15.32,9.83
				l44.9,97.85C897.01,1756.64,915.59,1756.67,921.63,1743.6z"/>
			<path class="st0" d="M1156.89,1857.62v71.99c0,10.56-8.56,19.12-19.12,19.12h-26.22c-10.56,0-19.12-8.56-19.12-19.12V1655
				c0-10.56,8.56-19.12,19.12-19.12h102.92c23.49,0,44.15,4.3,61.99,12.89s31.55,20.81,41.15,36.63c9.6,15.83,14.4,33.84,14.4,54.04
				c0,30.65-10.49,54.83-31.48,72.52c-20.99,17.69-50.03,26.54-87.13,26.54h-37.39C1165.45,1838.5,1156.89,1847.06,1156.89,1857.62z
				 M1156.89,1767.17c0,10.56,8.56,19.12,19.12,19.12h38.46c17.04,0,30.04-4.01,39-12.03c8.95-8.02,13.43-19.48,13.43-34.38
				c0-15.33-4.51-27.72-13.54-37.17c-9.02-9.45-21.49-14.32-37.39-14.61h-39.97c-10.56,0-19.12,8.56-19.12,19.12V1767.17z"/>
			<path class="st0" d="M1640.64,1948.73h-39.98c-6.76,0-12.24-5.48-12.24-12.24v-109.59c0-6.76-5.48-12.24-12.24-12.24h-101.21
				c-6.76,0-12.24,5.48-12.24,12.24v109.59c0,6.76-5.48,12.24-12.24,12.24h-39.98c-6.76,0-12.24-5.48-12.24-12.24v-288.36
				c0-6.76,5.48-12.24,12.24-12.24h39.98c6.76,0,12.24,5.48,12.24,12.24v102.29c0,6.76,5.48,12.24,12.24,12.24h101.21
				c6.76,0,12.24-5.48,12.24-12.24v-102.29c0-6.76,5.48-12.24,12.24-12.24h39.98c6.76,0,12.24,5.48,12.24,12.24v288.36
				C1652.89,1943.24,1647.41,1948.73,1640.64,1948.73z"/>
			<path class="st0" d="M1784.65,1948.73h-34.32c-8.32,0-15.07-6.75-15.07-15.07v-282.7c0-8.32,6.75-15.07,15.07-15.07h34.32
				c8.32,0,15.07,6.75,15.07,15.07v282.7C1799.72,1941.98,1792.98,1948.73,1784.65,1948.73z"/>
			<path class="st0" d="M1933.65,1948.73h-31.76c-9.03,0-16.35-7.32-16.35-16.35v-280.14c0-9.03,7.32-16.35,16.35-16.35h31.76
				c9.03,0,16.35,7.32,16.35,16.35v280.14C1950,1941.41,1942.68,1948.73,1933.65,1948.73z"/>
		</g>
	</g>
	<g>
		<g>
			<g>
				<linearGradient id="SVGID_1_" gradientUnits="userSpaceOnUse" x1="1416.8757" y1="40.6624" x2="691.5209" y2="1377.4274">
					<stop  offset="0" style="stop-color:#03A6A6"/>
					<stop  offset="0.6498" style="stop-color:#1C6871"/>
					<stop  offset="1" style="stop-color:#274B59"/>
				</linearGradient>
				<path class="st1" d="M1019.49,1499.05c-193.93,0-376.25-75.52-513.38-212.65c-137.13-137.13-212.65-319.45-212.65-513.38
					c0-193.93,75.52-376.26,212.65-513.39C643.23,122.5,825.56,46.98,1019.49,46.98s376.25,75.52,513.38,212.65
					c137.13,137.13,212.65,319.45,212.65,513.39c0,193.93-75.52,376.25-212.65,513.38
					C1395.74,1423.53,1213.42,1499.05,1019.49,1499.05z M1019.49,85.38c-183.67,0-356.36,71.53-486.23,201.41
					s-201.4,302.56-201.4,486.23c0,183.67,71.53,356.36,201.4,486.23c129.88,129.87,302.56,201.4,486.23,201.4
					s356.36-71.53,486.23-201.4c129.88-129.88,201.4-302.56,201.4-486.23c0-183.68-71.53-356.36-201.4-486.23
					S1203.16,85.38,1019.49,85.38z"/>
			</g>
			<g>
				<g>
					
						<linearGradient id="SVGID_00000181771001791265257480000012627864984736124055_" gradientUnits="userSpaceOnUse" x1="1239.7874" y1="-55.4292" x2="514.4326" y2="1281.3358">
						<stop  offset="0" style="stop-color:#03A6A6"/>
						<stop  offset="0.6498" style="stop-color:#1C6871"/>
						<stop  offset="1" style="stop-color:#274B59"/>
					</linearGradient>
					<path style="fill:url(#SVGID_00000181771001791265257480000012627864984736124055_);" d="M1019.49,654.15
						c-167.4,0-303.58-136.19-303.58-303.58S852.09,46.98,1019.49,46.98s303.58,136.19,303.58,303.58S1186.88,654.15,1019.49,654.15
						z M1019.49,85.38c-146.22,0-265.19,118.96-265.19,265.19s118.96,265.19,265.19,265.19s265.19-118.96,265.19-265.19
						S1165.71,85.38,1019.49,85.38z"/>
				</g>
				<g>
					
						<linearGradient id="SVGID_00000174592849026908951360000010571888751876132513_" gradientUnits="userSpaceOnUse" x1="1066.8553" y1="-149.2655" x2="341.5005" y2="1187.4995">
						<stop  offset="0" style="stop-color:#03A6A6"/>
						<stop  offset="0.6498" style="stop-color:#1C6871"/>
						<stop  offset="1" style="stop-color:#274B59"/>
					</linearGradient>
					<path style="fill:url(#SVGID_00000174592849026908951360000010571888751876132513_);" d="M707.29,600.19
						c-47.87,0-86.81-38.94-86.81-86.82c0-47.87,38.94-86.81,86.81-86.81c47.87,0,86.81,38.94,86.81,86.81
						C794.11,561.25,755.16,600.19,707.29,600.19z M707.29,464.96c-26.7,0-48.42,21.72-48.42,48.42c0,26.7,21.72,48.42,48.42,48.42
						s48.42-21.72,48.42-48.42C755.71,486.68,733.99,464.96,707.29,464.96z"/>
				</g>
				<g>
					
						<linearGradient id="SVGID_00000101102994317261141960000002343693457378517136_" gradientUnits="userSpaceOnUse" x1="912.7285" y1="-232.8977" x2="187.3737" y2="1103.8673">
						<stop  offset="0" style="stop-color:#03A6A6"/>
						<stop  offset="0.6498" style="stop-color:#1C6871"/>
						<stop  offset="1" style="stop-color:#274B59"/>
					</linearGradient>
					<path style="fill:url(#SVGID_00000101102994317261141960000002343693457378517136_);" d="M346.06,1044.59
						c-34.8-114.9-23.09-248.71,35.8-409.08c8.4-22.86,19.67-47.49,30.58-71.31c12.56-27.44,24.43-53.36,31.24-74.78
						c8.03-25.29,4.88-32.12,4.47-32.85c-2.2,0.36-18.34,4.76-51.77,56.56c-20.66,32-36.65,64.83-36.81,65.16L325,561.54
						c0.61-1.26,15.14-31.12,35.12-62.98c43.18-68.85,68.01-76.19,76.18-78.6c11.25-3.33,22.17-2.06,31.58,3.64
						c29.53,17.89,18.06,57.97,14.29,71.14c-7.16,25.04-20.6,54.38-34.83,85.46c-10.6,23.15-21.56,47.09-29.45,68.56
						c-55.9,152.24-67.38,278.08-35.09,384.71L346.06,1044.59z"/>
				</g>
				<g>
					
						<linearGradient id="SVGID_00000039841811672272307990000014923084102484424612_" gradientUnits="userSpaceOnUse" x1="1041.146" y1="-163.2158" x2="315.7912" y2="1173.5492">
						<stop  offset="0" style="stop-color:#03A6A6"/>
						<stop  offset="0.6498" style="stop-color:#1C6871"/>
						<stop  offset="1" style="stop-color:#274B59"/>
					</linearGradient>
					<path style="fill:url(#SVGID_00000039841811672272307990000014923084102484424612_);" d="M403.67,689.5l-35.04-15.69
						c27.42-61.23,71.3-111.3,120.4-137.35c46.35-24.59,100.09-26.15,151.33-4.37c13.17,5.6,24.93,12.25,36.3,18.69
						c18.78,10.63,36.52,20.68,57.49,23.72c32.09,4.66,66.64-0.57,99.9-15.12l15.39,35.18c-39.84,17.43-81.61,23.62-120.8,17.94
						c-28.11-4.08-49.86-16.4-70.9-28.31c-10.91-6.18-21.22-12.02-32.39-16.76c-40.37-17.15-82.39-16.11-118.31,2.95
						C465.33,592.5,427.66,635.92,403.67,689.5z"/>
				</g>
				<g>
					
						<linearGradient id="SVGID_00000032620282810878192120000012912912627952247465_" gradientUnits="userSpaceOnUse" x1="977.2714" y1="-197.8754" x2="251.9166" y2="1138.8895">
						<stop  offset="0" style="stop-color:#03A6A6"/>
						<stop  offset="0.6498" style="stop-color:#1C6871"/>
						<stop  offset="1" style="stop-color:#274B59"/>
					</linearGradient>
					<path style="fill:url(#SVGID_00000032620282810878192120000012912912627952247465_);" d="M625.41,565.67
						c-3.04-3.38-74.01-83.85-37.15-184.92c37.35-102.41,147.46-107.01,152.12-107.16l1.2,38.38c-3.56,0.13-88.91,4.24-117.25,81.93
						c-28.83,79.04,27.26,143.41,29.66,146.12L625.41,565.67z"/>
				</g>
			</g>
			<g>
				<g>
					
						<linearGradient id="SVGID_00000031891077884375312430000015383637854169563295_" gradientUnits="userSpaceOnUse" x1="1787.7899" y1="241.9278" x2="1062.4352" y2="1578.6927">
						<stop  offset="0" style="stop-color:#03A6A6"/>
						<stop  offset="0.6498" style="stop-color:#1C6871"/>
						<stop  offset="1" style="stop-color:#274B59"/>
					</linearGradient>
					<path style="fill:url(#SVGID_00000031891077884375312430000015383637854169563295_);" d="M1384.36,1288.24
						c-52.48,0-104.28-13.73-150.98-40.62c-145.07-83.52-195.15-269.49-111.63-414.57c83.52-145.07,269.49-195.15,414.57-111.63
						c70.28,40.46,120.59,105.86,141.68,184.16c21.08,78.3,10.41,160.13-30.04,230.4c-40.46,70.28-105.86,120.59-184.16,141.68
						C1437.51,1284.74,1410.85,1288.23,1384.36,1288.24z M1385.29,719.38c-91.84,0-181.25,47.68-230.27,132.82
						c-72.95,126.72-29.21,289.18,97.51,362.13c61.39,35.34,132.86,44.66,201.26,26.24c68.4-18.42,125.53-62.37,160.87-123.75
						s44.66-132.86,26.24-201.26c-18.42-68.4-62.37-125.53-123.76-160.87C1475.57,730.76,1430.14,719.38,1385.29,719.38z"/>
				</g>
				<g>
					
						<linearGradient id="SVGID_00000021119804285026070610000013033454603086413467_" gradientUnits="userSpaceOnUse" x1="1651.649" y1="168.0551" x2="926.2943" y2="1504.8201">
						<stop  offset="0" style="stop-color:#03A6A6"/>
						<stop  offset="0.6498" style="stop-color:#1C6871"/>
						<stop  offset="1" style="stop-color:#274B59"/>
					</linearGradient>
					<path style="fill:url(#SVGID_00000021119804285026070610000013033454603086413467_);" d="M1399.37,719.58
						c-15.01,0-29.82-3.92-43.17-11.61c-20.1-11.57-34.48-30.27-40.51-52.66c-6.03-22.39-2.98-45.79,8.59-65.89
						c11.57-20.1,30.27-34.48,52.66-40.52c22.39-6.03,45.79-2.98,65.89,8.59c41.49,23.89,55.81,77.07,31.92,118.55
						c-11.57,20.09-30.27,34.48-52.66,40.51C1414.57,718.58,1406.94,719.58,1399.37,719.58z M1399.59,584.29
						c-4.23,0-8.48,0.56-12.67,1.68c-12.49,3.36-22.92,11.39-29.37,22.6c-6.45,11.21-8.15,24.26-4.79,36.75
						c3.36,12.49,11.39,22.92,22.59,29.37c11.21,6.46,24.26,8.15,36.74,4.79c12.49-3.36,22.92-11.39,29.37-22.6
						c13.32-23.14,5.33-52.79-17.8-66.12C1416.22,586.48,1407.96,584.29,1399.59,584.29z"/>
				</g>
				<g>
					
						<linearGradient id="SVGID_00000039115043298096105790000001917141087204056988_" gradientUnits="userSpaceOnUse" x1="1466.9849" y1="67.8527" x2="741.6301" y2="1404.6177">
						<stop  offset="0" style="stop-color:#03A6A6"/>
						<stop  offset="0.6498" style="stop-color:#1C6871"/>
						<stop  offset="1" style="stop-color:#274B59"/>
					</linearGradient>
					<path style="fill:url(#SVGID_00000039115043298096105790000001917141087204056988_);" d="M1578.01,474.98
						c-22.83,0-42.49-20.29-50.02-28.06c-18.12-18.7-36.85-44.98-56.68-72.82c-14.78-20.74-30.06-42.19-44.73-59.73
						c-104.05-124.41-207.38-197.14-315.9-222.36l8.69-37.4c116.94,27.18,227.07,104.08,336.66,235.12
						c15.63,18.68,31.35,40.75,46.55,62.08c17.51,24.58,34.05,47.79,49.22,64.38c17.91,19.58,25.4,20.26,26.23,20.26
						c0.79-2.08,5.03-18.26-23.18-73.09c-17.43-33.87-37.91-64.11-38.11-64.41l31.76-21.59c0.78,1.15,19.41,28.64,37.06,61.86
						c38.13,71.77,32.1,96.96,30.11,105.24c-2.73,11.41-9.27,20.24-18.91,25.55C1590.4,473.54,1584.09,474.98,1578.01,474.98z"/>
				</g>
				<g>
					
						<linearGradient id="SVGID_00000116194093543110671160000017238628626137800328_" gradientUnits="userSpaceOnUse" x1="1577.6915" y1="127.9242" x2="852.3367" y2="1464.6892">
						<stop  offset="0" style="stop-color:#03A6A6"/>
						<stop  offset="0.6498" style="stop-color:#1C6871"/>
						<stop  offset="1" style="stop-color:#274B59"/>
					</linearGradient>
					<path style="fill:url(#SVGID_00000116194093543110671160000017238628626137800328_);" d="M1296.4,719.62l-38.17-4.22
						c4.78-43.22,20.24-82.52,44.73-113.64c17.56-22.32,39.09-35.03,59.9-47.32c10.8-6.38,21.01-12.4,30.69-19.71
						c35.01-26.43,55.07-63.37,56.47-104.01c1.63-47.17-17.2-101.48-51.67-149l31.08-22.54c39.39,54.31,60.88,117.32,58.96,172.87
						c-1.81,52.43-27.28,99.79-71.71,133.33c-11.42,8.62-23.06,15.49-34.31,22.13c-18.58,10.97-36.14,21.33-49.24,37.99
						C1313.1,650.98,1300.39,683.53,1296.4,719.62z"/>
				</g>
				<g>
					
						<linearGradient id="SVGID_00000171683027629003765480000010894942694951015355_" gradientUnits="userSpaceOnUse" x1="1734.554" y1="213.0408" x2="1009.1991" y2="1549.8058">
						<stop  offset="0" style="stop-color:#03A6A6"/>
						<stop  offset="0.6498" style="stop-color:#1C6871"/>
						<stop  offset="1" style="stop-color:#274B59"/>
					</linearGradient>
					<path style="fill:url(#SVGID_00000171683027629003765480000010894942694951015355_);" d="M1590.8,781.03l-33.86-18.11
						c1.66-3.15,40.69-79.17-12.51-142.49c-54.12-64.42-137.89-47.93-141.43-47.2l-7.97-37.56c4.44-0.95,109.6-22.3,178.79,60.06
						C1643.95,679.2,1593,776.91,1590.8,781.03z"/>
				</g>
			</g>
			<g>
				<g>
					
						<linearGradient id="SVGID_00000108272310881080309800000011138287467905485985_" gradientUnits="userSpaceOnUse" x1="1223.8359" y1="-64.0847" x2="498.4811" y2="1272.6802">
						<stop  offset="0" style="stop-color:#03A6A6"/>
						<stop  offset="0.6498" style="stop-color:#1C6871"/>
						<stop  offset="1" style="stop-color:#274B59"/>
					</linearGradient>
					<path style="fill:url(#SVGID_00000108272310881080309800000011138287467905485985_);" d="M656.33,1286.04
						c-105.65,0.01-208.42-55.13-264.33-153.32c-82.83-145.47-31.86-331.2,113.61-414.03l0,0c70.47-40.13,152.34-50.41,230.54-28.95
						c78.2,21.46,143.36,72.08,183.49,142.55c40.12,70.47,50.4,152.34,28.94,230.54c-21.46,78.2-72.08,143.36-142.55,183.49
						C758.76,1273.25,707.2,1286.04,656.33,1286.04z M655.41,717.21c-45.41,0-90.26,11.77-130.8,34.85l0,0
						c-127.07,72.35-171.59,234.59-99.24,361.66c72.35,127.07,234.59,171.59,361.66,99.24c61.56-35.05,105.78-91.97,124.52-160.28
						c18.74-68.31,9.76-139.83-25.28-201.38C851.23,789.74,794.3,745.52,726,726.78C702.67,720.38,678.96,717.21,655.41,717.21z"/>
				</g>
				<g>
					
						<linearGradient id="SVGID_00000096047823656376772340000003211529276885922236_" gradientUnits="userSpaceOnUse" x1="1532.3724" y1="103.3332" x2="807.0176" y2="1440.0981">
						<stop  offset="0" style="stop-color:#03A6A6"/>
						<stop  offset="0.6498" style="stop-color:#1C6871"/>
						<stop  offset="1" style="stop-color:#274B59"/>
					</linearGradient>
					<path style="fill:url(#SVGID_00000096047823656376772340000003211529276885922236_);" d="M951.92,1260.11
						c-7.71,0-15.47-1.04-23.11-3.13c-22.36-6.14-41-20.62-52.47-40.77c-23.69-41.6-9.11-94.71,32.49-118.4h0
						c41.6-23.68,94.71-9.11,118.4,32.49c11.47,20.15,14.41,43.56,8.28,65.93c-6.14,22.36-20.61,41-40.77,52.47
						C981.47,1256.25,966.78,1260.11,951.92,1260.11z M927.83,1131.18c-23.2,13.21-31.33,42.83-18.12,66.03
						c6.4,11.24,16.79,19.31,29.26,22.74c12.47,3.42,25.53,1.78,36.77-4.62c11.24-6.4,19.31-16.79,22.74-29.26
						c3.42-12.47,1.78-25.53-4.62-36.77C980.65,1126.1,951.03,1117.97,927.83,1131.18L927.83,1131.18z"/>
				</g>
				<g>
					
						<linearGradient id="SVGID_00000009591001988757347420000009950514364391422133_" gradientUnits="userSpaceOnUse" x1="1853.9384" y1="277.8212" x2="1128.5836" y2="1614.5862">
						<stop  offset="0" style="stop-color:#03A6A6"/>
						<stop  offset="0.6498" style="stop-color:#1C6871"/>
						<stop  offset="1" style="stop-color:#274B59"/>
					</linearGradient>
					<path style="fill:url(#SVGID_00000009591001988757347420000009950514364391422133_);" d="M1139.55,1482.87
						c-8.95,0-18.75-0.16-28.87-0.59c-81.2-3.45-99.86-21.41-106-27.31c-8.45-8.13-12.76-18.24-12.46-29.24
						c0.94-34.51,41.44-44.38,54.75-47.62c25.3-6.16,57.45-9.01,91.5-12.02c25.37-2.24,51.59-4.56,74.15-8.34
						c159.96-26.75,275-79.04,351.68-159.86l7.32,6.94c11.53,10.94,11.32,29.31-0.37,40.08c-81.85,75.41-197.48,124.81-352.3,150.7
						c-24.02,4.02-51.01,6.4-77.1,8.71c-30.06,2.66-58.46,5.17-80.44,9.86c-25.96,5.53-30.33,11.65-30.76,12.37
						c1.39,1.73,13.21,13.58,74.76,17.01c38.03,2.12,74.48-0.23,74.84-0.26l2.54,38.31
						C1181.77,1481.7,1163.81,1482.87,1139.55,1482.87z"/>
				</g>
				<g>
					
						<linearGradient id="SVGID_00000122705421741360576000000000446488983274046854_" gradientUnits="userSpaceOnUse" x1="1659.3357" y1="172.2259" x2="933.9808" y2="1508.991">
						<stop  offset="0" style="stop-color:#03A6A6"/>
						<stop  offset="0.6498" style="stop-color:#1C6871"/>
						<stop  offset="1" style="stop-color:#274B59"/>
					</linearGradient>
					<path style="fill:url(#SVGID_00000122705421741360576000000000446488983274046854_);" d="M1225.82,1389.78
						c-54.92,0-106.82-13.42-145.98-38.26c-44.3-28.11-72.24-74.04-78.68-129.34c-1.65-14.22-1.69-27.73-1.72-40.79
						c-0.05-21.58-0.1-41.96-7.83-61.7c-11.83-30.19-33.47-57.63-62.57-79.34l22.96-30.78c34.85,26,60.91,59.23,75.36,96.1
						c10.36,26.44,10.42,51.44,10.48,75.62c0.03,12.54,0.06,24.39,1.46,36.44c5.07,43.58,26.77,79.57,61.11,101.35
						c39.85,25.28,96.23,36.53,154.65,30.87l3.7,38.22C1247.72,1389.25,1236.71,1389.78,1225.82,1389.78z"/>
				</g>
				<g>
					
						<linearGradient id="SVGID_00000137830096207792074490000005094405170581813649_" gradientUnits="userSpaceOnUse" x1="1507.9919" y1="90.1039" x2="782.6371" y2="1426.8689">
						<stop  offset="0" style="stop-color:#03A6A6"/>
						<stop  offset="0.6498" style="stop-color:#1C6871"/>
						<stop  offset="1" style="stop-color:#274B59"/>
					</linearGradient>
					<path style="fill:url(#SVGID_00000137830096207792074490000005094405170581813649_);" d="M868,1344.67
						c-89.99,0-138.74-77.9-140.96-81.53l32.76-20.03c1.88,3.02,47.68,75.18,129.21,61.35c82.95-14.06,111.14-94.65,112.3-98.07
						l36.43,12.15c-1.43,4.31-36.25,105.81-142.31,123.78C885.91,1343.93,876.75,1344.67,868,1344.67z"/>
				</g>
			</g>
		</g>
		<g>
			
				<linearGradient id="SVGID_00000047026065593619669880000008663987850553026434_" gradientUnits="userSpaceOnUse" x1="1273.381" y1="-27.2316" x2="560.3304" y2="1286.8578">
				<stop  offset="0" style="stop-color:#03A6A6"/>
				<stop  offset="0.6498" style="stop-color:#1C6871"/>
				<stop  offset="1" style="stop-color:#274B59"/>
			</linearGradient>
			<path style="fill:url(#SVGID_00000047026065593619669880000008663987850553026434_);" d="M924.99,625.39
				c-5.23,4.09-12.91,2.75-16.33-2.93c-32.55-54.13-13.42-134.19-1.7-183.23c2.06-8.61,4.51-18.88,5.46-24.7
				c0.38-2.34,0.03-4.75-1.07-6.86c-5.26-10.13-22.06-29.49-31.66-40.56c-10.76-12.4-20.92-24.1-26.69-33.53
				c-16.61-27.1-1.34-78.27,3.74-93.31l2.29-6.79c1.8-5.33,7.3-8.48,12.81-7.33l7.02,1.47c12.02,2.51,25.45,4.44,31.89,4.66
				c1.69,0.06,3.36-0.27,4.91-0.95c3.62-1.59,9.34-4.64,13.79-7.02c12.44-6.65,27.92-14.93,42.85-18.2
				c18.76-4.11,52.7,5.65,76.26,13.86c4.23,1.47,8.91,0.26,11.91-3.07c24.43-27.16,59.18-48.38,60.96-49.46l7.41-4.49
				c5.51-3.34,12.7-1.31,15.65,4.43l3.96,7.7c1.17,2.28,28.48,56.43,10.2,112.07c-17.03,51.83-12.32,73.63-6.32,86.83
				c8.27,18.19,8.94,53.38,8.3,77.04c-0.13,4.62,2.62,8.82,6.9,10.57c22.81,9.31,58.73,25.13,80.53,40.53
				c5.51,3.89,6.31,11.75,1.7,16.68l-11.06,11.83c-3.75,4.01-9.88,4.75-14.42,1.66c-20.91-14.26-64.62-33.05-90.57-42.72l-5.67-2.12
				c-4.63-1.73-7.56-6.3-7.21-11.22l0.44-6.04c1.86-25.69,1.89-67.6-3.89-80.31c-13.38-29.44-11.95-63.74,4.8-114.7
				c4.87-14.83,5.09-29.92,3.42-43.08c-1.11-8.77-11.51-12.76-18.26-7.05c-11.16,9.43-22.03,20.26-28.36,30.66l-3.56,5.85
				c-2.83,4.65-8.6,6.56-13.65,4.54l-6.35-2.55c-31.16-12.52-66.16-21.8-74.91-19.91c-9.72,2.13-22.59,9.01-32.94,14.55
				c-11.59,6.2-20.75,11.1-29.24,12.16c-5.22,0.65-12.46,0.25-19.8-0.58c-5.81-0.66-11.11,3.31-12.18,9.05
				c-2.99,16.01-3.48,30.01-0.6,34.71c4.12,6.72,13.69,17.76,22.96,28.43c24.01,27.67,39.93,47.12,42.25,64.55
				c1.14,8.55-1.21,18.96-6.64,41.66c-9.52,39.82-26.72,111.78-3.62,152.96c2.69,4.79,1.5,10.82-2.83,14.21L924.99,625.39z"/>
		</g>
		<g>
			
				<linearGradient id="SVGID_00000039099533699951882530000003240602630433847484_" gradientUnits="userSpaceOnUse" x1="1196.1709" y1="-61.8367" x2="503.2624" y2="1215.1326">
				<stop  offset="0" style="stop-color:#03A6A6"/>
				<stop  offset="0.6498" style="stop-color:#1C6871"/>
				<stop  offset="1" style="stop-color:#274B59"/>
			</linearGradient>
			<path style="fill:url(#SVGID_00000039099533699951882530000003240602630433847484_);" d="M1019.6,232.45l-18.78-7.67
				c-4.95-2.02-7.09-7.84-4.64-12.59c7.65-14.81,25.71-44.06,55.02-58.72l9.14-4.57c4.52-2.26,10.02-0.4,12.23,4.15l4.47,9.19
				c0.56,1.16,12.73,26.5,14.83,59.79c0.33,5.23-3.83,9.67-9.07,9.67h-20.27c-4.77,0-8.71-3.69-9.06-8.45
				c-0.01-0.11-0.02-0.21-0.02-0.32c-0.66-8.72-11.99-11.61-16.72-4.25c-2.31,3.58-4.2,6.9-5.65,9.63
				C1028.89,232.44,1023.92,234.21,1019.6,232.45z"/>
		</g>
		<g>
			<g>
				
					<linearGradient id="SVGID_00000033340969854100134100000014058156223419951000_" gradientUnits="userSpaceOnUse" x1="1205.4243" y1="-48.4085" x2="494.2374" y2="1262.2465">
					<stop  offset="0" style="stop-color:#03A6A6"/>
					<stop  offset="0.6498" style="stop-color:#1C6871"/>
					<stop  offset="1" style="stop-color:#274B59"/>
				</linearGradient>
				<path style="fill:url(#SVGID_00000033340969854100134100000014058156223419951000_);" d="M386.04,1067.49l-7.68-12.91
					c-2.99-5.03-1.79-11.44,2.74-15.14c35.89-29.31,92.91-117.56,121.41-161.68c7.1-11,13.24-20.49,17.75-27.16
					c32.22-47.57,100.19-43.21,161.37-35.4c46.87,5.98,72.16,37.99,83.88,58.9c1.97,3.52,5.64,5.75,9.67,5.93l96.54,4.37
					c5.64,0.26,10.31,4.5,11.08,10.1l0.86,6.15c0.68,4.86,15.69,119.22-60.73,142.66c-51.3,15.74-91.01,0.06-109.62-10.27
					c-6.34-3.52-8-11.87-3.49-17.55l9.39-11.82c3.5-4.4,9.63-5.73,14.6-3.11c13.12,6.93,41.15,17.31,77.86,6.04
					c28.29-8.68,34.39-46.65,35.04-73.39c0.16-6.39-4.82-11.72-11.2-12.01l-85.9-3.89c-4.88-0.22-9.11-3.44-10.62-8.08l-1.6-4.92
					c-0.59-1.75-15.84-45.31-60.63-51.03c-49.85-6.36-104.71-10.68-124.72,18.85c-4.28,6.32-10.31,15.65-17.29,26.46
					c-43.94,68.02-93.28,141.79-131.35,172.08C397.86,1075.11,389.67,1073.6,386.04,1067.49z"/>
			</g>
			<g>
				
					<linearGradient id="SVGID_00000163050216791282597490000016945280376637834389_" gradientUnits="userSpaceOnUse" x1="1345.5388" y1="1.9537" x2="620.184" y2="1338.7186">
					<stop  offset="0" style="stop-color:#03A6A6"/>
					<stop  offset="0.6498" style="stop-color:#1C6871"/>
					<stop  offset="1" style="stop-color:#274B59"/>
				</linearGradient>
				<path style="fill:url(#SVGID_00000163050216791282597490000016945280376637834389_);" d="M822.39,901.38
					c0,0-6.57,36.88,42.27,51.46V903.3L822.39,901.38z"/>
			</g>
			<g>
				
					<linearGradient id="SVGID_00000095302015121446339890000003984846068702512257_" gradientUnits="userSpaceOnUse" x1="1176.8862" y1="-63.9945" x2="463.4161" y2="1250.8682">
					<stop  offset="0" style="stop-color:#03A6A6"/>
					<stop  offset="0.6498" style="stop-color:#1C6871"/>
					<stop  offset="1" style="stop-color:#274B59"/>
				</linearGradient>
				<path style="fill:url(#SVGID_00000095302015121446339890000003984846068702512257_);" d="M619,1131.76
					c-36.74,0-79.46-7.16-107.76-22.15c-18.98-10.05-30.19-23-33.34-38.48c-4.49-22.12,18.39-135.26,30.76-193.35
					c1.26-5.92,7.09-9.69,13.01-8.41l16.14,3.48c5.89,1.27,9.65,7.07,8.4,12.97c-15.64,73.59-30.29,153.31-30.72,174.58
					c-0.06,2.89,1,5.69,3.02,7.76c2.18,2.24,5.64,4.84,10.71,7.53c36.05,19.1,109.92,21.61,132.36,12.24
					c5.45-2.27,8.23-5.46,9.3-10.66c2.94-14.27-7.16-43.35-36.28-73.47c-29.45-30.45-41.59-68.96-46.07-88.04
					c-1.47-6.27,2.78-12.44,9.17-13.32l16.45-2.27c5.55-0.76,10.78,2.78,12.12,8.23c3.75,15.24,13.56,45.56,35.94,68.71
					c34.84,36.03,52.58,77.38,46.29,107.91c-3.62,17.59-15.02,31.2-32.1,38.34C663.08,1128.9,642.23,1131.76,619,1131.76z"/>
			</g>
			<g>
				
					<linearGradient id="SVGID_00000126292303141061777570000014006246426967611826_" gradientUnits="userSpaceOnUse" x1="1358.9087" y1="9.2084" x2="633.5539" y2="1345.9734">
					<stop  offset="0" style="stop-color:#03A6A6"/>
					<stop  offset="0.6498" style="stop-color:#1C6871"/>
					<stop  offset="1" style="stop-color:#274B59"/>
				</linearGradient>
				<path style="fill:url(#SVGID_00000126292303141061777570000014006246426967611826_);" d="M726.49,1262.26h-38.4
					c0-141.83,76.41-239.43,79.66-243.52l30.06,23.89C797.1,1043.54,726.49,1134.31,726.49,1262.26z"/>
			</g>
		</g>
		<g>
			
				<linearGradient id="SVGID_00000037692174824136572070000007619704931415704717_" gradientUnits="userSpaceOnUse" x1="1775.1882" y1="247.456" x2="1059.9631" y2="1565.5529">
				<stop  offset="0" style="stop-color:#03A6A6"/>
				<stop  offset="0.6498" style="stop-color:#1C6871"/>
				<stop  offset="1" style="stop-color:#274B59"/>
			</linearGradient>
			<path style="fill:url(#SVGID_00000037692174824136572070000007619704931415704717_);" d="M1188.58,1195.68
				c2.81-38.06,30.63-82.77,51.14-110.99c3.59-4.95,2.56-11.82-2.26-15.58c-33.57-26.15-52.22-64.01-54.39-111.18
				c-1.99-43.21,10.85-79.03,11.39-80.54c2.31-6.34,7.77-11,14.4-12.28c6.62-1.27,13.43,1.01,17.94,6.03
				c25.57,28.51,70.4,21.79,106.42,16.39c6.02-0.9,11.71-1.75,17.15-2.42c28.79-3.53,54.29,8.59,70.62,19.39
				c4.17,2.76,9.7,2.43,13.48-0.84c20.59-17.79,47.07-20.88,74.97-20.88c63.25,0,95.71,22.46,95.71,85.71
				c0,63.25-42.46,113.71-105.71,113.71c-50.44,0-84.63-10.09-99.45-57.28c-2.02-6.44,1.97-13.21,8.6-14.52l15.62-3.07
				c5.55-1.09,11.07,2.09,12.87,7.46c10.27,30.64,29.3,29,62.37,29c42.08,0,67.31-33.23,67.31-75.31
				c0-42.08-15.23-47.31-57.31-47.31c-25.5,0-49.21,5.67-63.44,26.88c-3.32,4.95-8.76,8.08-14.71,8.47
				c-5.96,0.37-11.74-2.02-15.68-6.5l-2.96-3.37c-0.27-0.31-0.55-0.59-0.85-0.87c-4.71-4.31-29.83-25.87-56.76-22.56
				c-4.94,0.61-10.39,1.42-16.15,2.29c-28.62,4.29-67.62,10.13-101.94-2.51c-7-2.58-14.49,2.19-15.17,9.62
				c-3.49,38.04,3.5,92.16,62.05,120.15c5.39,2.58,9.28,7.52,10.51,13.37c1.23,5.85-0.34,11.94-4.24,16.47
				c-23.86,27.77-59.47,80.3-63.09,113.54c-0.58,5.32-4.76,9.52-10.09,10.06l-15.95,1.62
				C1193.97,1208.54,1188.07,1202.72,1188.58,1195.68z"/>
		</g>
		<g>
			
				<linearGradient id="SVGID_00000138557036687600608830000016843063512220106130_" gradientUnits="userSpaceOnUse" x1="1751.3252" y1="310.9025" x2="1070.4821" y2="1565.6365">
				<stop  offset="0" style="stop-color:#03A6A6"/>
				<stop  offset="0.6498" style="stop-color:#1C6871"/>
				<stop  offset="1" style="stop-color:#274B59"/>
			</linearGradient>
			<path style="fill:url(#SVGID_00000138557036687600608830000016843063512220106130_);" d="M1458.48,914.66
				c-4.84-33.47,4.62-37.14-29.27-37.14c-30.43,0-34.72,20.39-43.13,49.59l-35.01-6.23c13.13-45.55,44.73-76.17,92.17-76.17
				c52.84,0,45.2,19.03,52.76,71.26L1458.48,914.66z"/>
		</g>
		<g>
			
				<linearGradient id="SVGID_00000123431257457518057360000011126727250866015890_" gradientUnits="userSpaceOnUse" x1="1928.0167" y1="318.0175" x2="1202.662" y2="1654.7826">
				<stop  offset="0" style="stop-color:#03A6A6"/>
				<stop  offset="0.6498" style="stop-color:#1C6871"/>
				<stop  offset="1" style="stop-color:#274B59"/>
			</linearGradient>
			<path style="fill:url(#SVGID_00000123431257457518057360000011126727250866015890_);" d="M1505.58,1237.37
				c-8.89-33.81-23.1-44.5-48.89-63.89c-5.89-4.42-11.97-9-18.63-14.33c-20.9-16.72-29.83-41.77-25.81-72.45
				c2.7-20.64,10.38-36.66,11.25-38.41l34.44,16.98l-17.22-8.49l17.25,8.43c-0.21,0.44-20.89,43.98,4.09,63.96
				c6.21,4.96,12.06,9.36,17.72,13.62c27.19,20.44,50.66,38.1,62.95,84.82L1505.58,1237.37z"/>
		</g>
	</g>
</g>
</svg>
